<mxfile host="app.diagrams.net" agent="Mozilla/5.0 (X11; Ubuntu; Linux x86_64; rv:130.0) Gecko/20100101 Firefox/130.0" version="24.7.16">
  <diagram name="Page-1" id="a6bpp-dc-AZYhqgVWW-3">
    <mxGraphModel dx="873" dy="508" grid="1" gridSize="10" guides="1" tooltips="1" connect="1" arrows="1" fold="1" page="1" pageScale="1" pageWidth="850" pageHeight="1100" math="0" shadow="0">
      <root>
        <mxCell id="0" />
        <mxCell id="1" parent="0" />
        <mxCell id="8mRTIrWLBFrAkmFhTARG-9" style="edgeStyle=orthogonalEdgeStyle;rounded=0;orthogonalLoop=1;jettySize=auto;html=1;exitX=0.5;exitY=0.5;exitDx=0;exitDy=15;exitPerimeter=0;entryX=0.5;entryY=0;entryDx=0;entryDy=0;" edge="1" parent="1" source="8mRTIrWLBFrAkmFhTARG-3" target="8mRTIrWLBFrAkmFhTARG-4">
          <mxGeometry relative="1" as="geometry" />
        </mxCell>
        <mxCell id="8mRTIrWLBFrAkmFhTARG-3" value="Start network" style="html=1;dashed=0;whiteSpace=wrap;shape=mxgraph.dfd.start" vertex="1" parent="1">
          <mxGeometry x="300" y="50" width="125" height="30" as="geometry" />
        </mxCell>
        <mxCell id="8mRTIrWLBFrAkmFhTARG-7" style="edgeStyle=orthogonalEdgeStyle;rounded=0;orthogonalLoop=1;jettySize=auto;html=1;exitX=0.5;exitY=1;exitDx=0;exitDy=0;entryX=0.5;entryY=0;entryDx=0;entryDy=0;" edge="1" parent="1" source="8mRTIrWLBFrAkmFhTARG-4" target="8mRTIrWLBFrAkmFhTARG-5">
          <mxGeometry relative="1" as="geometry" />
        </mxCell>
        <mxCell id="8mRTIrWLBFrAkmFhTARG-4" value="Start core network" style="html=1;dashed=0;whiteSpace=wrap;" vertex="1" parent="1">
          <mxGeometry x="298.75" y="100" width="127.5" height="30" as="geometry" />
        </mxCell>
        <mxCell id="8mRTIrWLBFrAkmFhTARG-8" style="edgeStyle=orthogonalEdgeStyle;rounded=0;orthogonalLoop=1;jettySize=auto;html=1;exitX=0.5;exitY=1;exitDx=0;exitDy=0;entryX=0.5;entryY=0;entryDx=0;entryDy=0;" edge="1" parent="1" source="8mRTIrWLBFrAkmFhTARG-5" target="8mRTIrWLBFrAkmFhTARG-6">
          <mxGeometry relative="1" as="geometry" />
        </mxCell>
        <mxCell id="8mRTIrWLBFrAkmFhTARG-5" value="Start gNB" style="html=1;dashed=0;whiteSpace=wrap;" vertex="1" parent="1">
          <mxGeometry x="298.75" y="150" width="127.5" height="30" as="geometry" />
        </mxCell>
        <mxCell id="8mRTIrWLBFrAkmFhTARG-11" style="edgeStyle=orthogonalEdgeStyle;rounded=0;orthogonalLoop=1;jettySize=auto;html=1;exitX=0.5;exitY=1;exitDx=0;exitDy=0;entryX=0.5;entryY=0;entryDx=0;entryDy=0;" edge="1" parent="1" source="8mRTIrWLBFrAkmFhTARG-6" target="8mRTIrWLBFrAkmFhTARG-10">
          <mxGeometry relative="1" as="geometry" />
        </mxCell>
        <mxCell id="8mRTIrWLBFrAkmFhTARG-6" value="Start UE" style="html=1;dashed=0;whiteSpace=wrap;" vertex="1" parent="1">
          <mxGeometry x="298.75" y="200" width="127.5" height="30" as="geometry" />
        </mxCell>
        <mxCell id="8mRTIrWLBFrAkmFhTARG-10" value="&lt;div&gt;does UE get&amp;nbsp;&lt;/div&gt;&lt;div&gt;enough internet?&lt;/div&gt;" style="shape=rhombus;html=1;dashed=0;whiteSpace=wrap;perimeter=rhombusPerimeter;" vertex="1" parent="1">
          <mxGeometry x="282.5" y="250" width="160" height="70" as="geometry" />
        </mxCell>
      </root>
    </mxGraphModel>
  </diagram>
</mxfile>
